<svg xmlns="http://www.w3.org/2000/svg" width="512" height="512"><path d="M0 0 C0.66 0 1.32 0 2 0 C3.59913981 2.57857516 5.09358247 5.16099117 6.5625 7.8125 C10.76247091 15.1660691 15.35306197 21.66343591 21 28 C21.71800781 28.83789062 22.43601562 29.67578125 23.17578125 30.5390625 C46.96016003 57.8298417 81.7990619 75.79896965 118 79 C122.83139569 79.2546457 127.66435437 79.41261464 132.5 79.5625 C134.4490625 79.62727539 134.4490625 79.62727539 136.4375 79.69335938 C139.62490845 79.7988251 142.81238698 79.90094448 146 80 C146.39541992 80.82056885 146.79083984 81.6411377 147.19824219 82.48657227 C147.72579102 83.56479248 148.25333984 84.6430127 148.796875 85.75390625 C149.31604492 86.8219751 149.83521484 87.89004395 150.37011719 88.99047852 C154.5555584 96.71874902 160.92134599 100.85685809 169 104 C173.60980205 105.2060402 178.12398027 105.15473565 182.85424805 105.16113281 C183.73624374 105.16609772 184.61823944 105.17106262 185.52696228 105.17617798 C188.43855579 105.19075587 191.35009477 105.19759502 194.26171875 105.203125 C196.29327902 105.20888091 198.32483928 105.21463858 200.35639954 105.22039795 C204.61577608 105.2308961 208.87513383 105.23674624 213.13452148 105.24023438 C218.57372954 105.2457106 224.01268621 105.26972511 229.45181561 105.29820633 C233.64960947 105.31689679 237.84734361 105.32204176 242.04517555 105.32357025 C244.04929793 105.32658383 246.05341958 105.33456828 248.05750084 105.34775543 C250.87145068 105.36494706 253.68479722 105.36290367 256.4987793 105.35644531 C257.31523926 105.3656601 258.13169922 105.37487488 258.97290039 105.3843689 C269.81182125 105.30704142 277.93801022 101.85150402 285.6875 94.37109375 C288.58064065 91.2537347 290.49699195 88.1811705 292.171875 84.26953125 C292.51831055 83.46749268 292.86474609 82.6654541 293.22167969 81.83911133 C293.60694824 80.92875122 293.60694824 80.92875122 294 80 C294.75394043 79.98541748 295.50788086 79.97083496 296.28466797 79.95581055 C341.15386281 78.98930254 381.45125264 67.40410871 413.73706055 34.61474609 C423.48966289 24.38900256 431.67663815 12.64672371 438 0 C438.66 0 439.32 0 440 0 C440.0467673 24.5829362 440.08201203 49.16586571 440.10362434 73.74883747 C440.11392704 85.16370953 440.12796814 96.57855391 440.15087891 107.9934082 C440.17084359 117.94519402 440.18372375 127.89695979 440.18817699 137.84876508 C440.19077915 143.11578332 440.19687441 148.38274421 440.21146011 153.64974403 C440.22509266 158.61303101 440.22921121 163.57623732 440.22621536 168.53954124 C440.22676299 170.35550246 440.23070649 172.17146654 440.23841095 173.9874115 C440.35038631 201.75549966 440.35038631 201.75549966 429.95703125 213.26171875 C420.23771014 222.56818374 410.16941326 223.58990822 397.21069336 223.50793457 C395.61701101 223.51254906 394.02333292 223.51890564 392.42966366 223.52684355 C388.07043886 223.54348486 383.711566 223.53531429 379.35234022 223.52289867 C374.64332712 223.51382915 369.93437351 223.52782734 365.22537231 223.53881836 C356.00837415 223.55658786 346.79150642 223.55277058 337.57450318 223.5411678 C330.08244397 223.53212758 322.59042126 223.53091202 315.09835815 223.53526306 C314.03131084 223.53587599 312.96426353 223.53648893 311.86488146 223.53712043 C309.6970721 223.53839936 307.52926275 223.53969621 305.36145341 223.5410108 C285.04257487 223.552412 264.72376856 223.53931009 244.40490186 223.51780933 C226.97725518 223.49993878 209.54971507 223.50304302 192.12207031 223.52148438 C171.87499646 223.54289918 151.62798589 223.55131341 131.38090229 223.53903532 C129.22114882 223.53776115 127.06139534 223.53650366 124.90164185 223.53526306 C123.83905228 223.53464596 122.77646272 223.53402886 121.68167347 223.53339306 C114.20019156 223.52994199 106.71874985 223.53576325 99.23727417 223.54518127 C90.1175791 223.5564094 80.99802172 223.55334404 71.87834239 223.5320583 C67.22694494 223.52155889 62.57577691 223.51740716 57.92438126 223.53065491 C53.66318947 223.5426076 49.40243894 223.53596907 45.14128697 223.5147447 C43.60306454 223.5102908 42.06480454 223.51251759 40.52660644 223.52224785 C27.59082204 223.59777475 18.69122021 221.55234378 9.19921875 212.41796875 C-1.34529784 200.82461924 -0.28946225 186.02022678 -0.22705078 171.30981445 C-0.22648579 169.43629462 -0.22680494 167.56277434 -0.22793579 165.68925476 C-0.22850688 160.63217685 -0.21679219 155.57519485 -0.20278788 150.51813912 C-0.19023972 145.22239948 -0.18910681 139.92665736 -0.18673706 134.63090515 C-0.18053426 124.61561485 -0.16413975 114.60036849 -0.14403808 104.58509749 C-0.12164164 93.17756863 -0.11067625 81.7700376 -0.10064721 70.3624922 C-0.07977242 46.90830383 -0.04461987 23.45415438 0 0 Z " fill="#F7EB00" transform="translate(36,257)"></path><path d="M0 0 C0.64826653 -0.00235223 1.29653307 -0.00470446 1.96444404 -0.00712797 C4.14570508 -0.01380688 6.3269064 -0.01336008 8.5081768 -0.01294994 C10.08430156 -0.01624926 11.66042547 -0.01997497 13.2365483 -0.02409142 C17.57500882 -0.03411183 21.9134555 -0.03782828 26.25192595 -0.04048073 C30.92830652 -0.04438365 35.60467614 -0.05396199 40.28104973 -0.0626936 C51.57800635 -0.08245814 62.87496388 -0.09252411 74.17193347 -0.10142139 C79.49132999 -0.10580422 84.8107255 -0.11117103 90.13012123 -0.11641026 C107.81197528 -0.13342237 125.49382872 -0.14791676 143.1756897 -0.155159 C147.76445453 -0.1570689 152.35321936 -0.15898923 156.94198418 -0.16094494 C158.6527647 -0.16167055 158.6527647 -0.16167055 160.39810644 -0.16241082 C178.87569336 -0.17071194 197.35321555 -0.19605035 215.8307742 -0.22852562 C234.79933858 -0.26159219 253.76787007 -0.27960739 272.73646343 -0.28280324 C283.38742007 -0.28496868 294.03828233 -0.29372243 304.68921089 -0.31926441 C313.75962467 -0.34096587 322.82992113 -0.34902453 331.90035792 -0.33929763 C336.52742514 -0.33475137 341.15425028 -0.33665815 345.78128433 -0.35605907 C350.02048826 -0.37368017 354.25927331 -0.37270165 358.49848162 -0.35716178 C360.02881758 -0.35478411 361.55918246 -0.35911758 363.08947422 -0.37099043 C374.98815384 -0.45755935 384.18416442 1.35932997 393.51522636 9.09125233 C401.13904903 16.72968002 404.65171592 26.75708752 404.86678886 37.38422108 C404.79927037 39.97524337 404.69853492 42.54767989 404.55428886 45.13422108 C404.5117498 45.95003651 404.46921074 46.76585194 404.42538261 47.60638905 C402.30280841 84.51332838 387.61972062 117.45326389 360.28719902 142.59515858 C344.15713056 156.92087731 324.47310184 167.01953071 303.55428886 172.13422108 C302.84304863 172.30921131 302.1318084 172.48420155 301.39901543 172.66449451 C287.60345298 175.87646272 273.63678588 175.45331089 259.55428886 175.13422108 C259.54494316 174.31332996 259.53559746 173.49243885 259.52596855 172.64667225 C259.48146873 169.54673616 259.41964311 166.44772155 259.34676933 163.34833241 C259.30527966 161.36898873 259.28306375 159.38927077 259.26132011 157.4096117 C258.9718538 145.97569236 256.85742948 135.5106786 248.55428886 127.13422108 C239.01356993 119.44340815 229.20151075 117.98146954 217.29330254 117.98895741 C216.51001076 117.98559879 215.72671898 117.98224018 214.91969109 117.97877979 C212.35386338 117.96935261 209.78810151 117.96733086 207.22225761 117.96625233 C205.42158291 117.96303406 203.62090847 117.95966957 201.8202343 117.95616627 C198.0537639 117.95019559 194.28731639 117.94832425 190.5208416 117.94891834 C185.71971791 117.94901985 180.91874246 117.9353698 176.11765385 117.91814613 C172.40021416 117.90697003 168.68280968 117.90500085 164.96535492 117.90552807 C163.19651911 117.90435632 161.42768214 117.89998032 159.65886307 117.8921957 C141.34328119 117.59997591 141.34328119 117.59997591 124.55428886 124.13422108 C123.94842949 124.52093983 123.34257011 124.90765858 122.71835136 125.30609608 C116.22833227 130.12401418 112.1196025 138.27089237 110.55428886 146.13422108 C110.40654025 148.37662685 110.30684519 150.6223865 110.23788261 152.86859608 C110.19598808 154.16410389 110.15409355 155.4596117 110.11092949 156.79437733 C110.07112215 158.15765584 110.03140981 159.52093713 109.99178886 160.88422108 C109.94856612 162.26313983 109.90495066 163.64204633 109.86092949 165.02093983 C109.75484928 168.39193298 109.65279036 171.76299934 109.55428886 175.13422108 C78.00272903 180.03052466 44.11626369 168.57149799 18.69076347 150.12274647 C-11.76934195 127.25284166 -29.21986263 94.78717767 -34.84805489 57.46625233 C-36.82885929 41.26707107 -36.81497431 24.35554765 -26.44571114 11.00922108 C-19.58976128 3.46916343 -9.95568506 0.01539652 0 0 Z " fill="#F7EC00" transform="translate(71.44571113586426,146.86577892303467)"></path><path d="M0 0 C2.00146675 -0.00270368 4.00293221 -0.00659333 6.00439453 -0.01159668 C10.17298039 -0.01745057 14.3412204 -0.00906277 18.50976562 0.00976562 C23.80811101 0.03255246 29.10564542 0.01940709 34.40396118 -0.00452423 C38.52911301 -0.01909426 42.65407786 -0.01432533 46.77923584 -0.00401306 C48.73093771 -0.0013766 50.6826575 -0.00450471 52.63433838 -0.01393127 C79.44730862 -0.11507001 103.04694405 7.67007497 122.5625 26.65625 C143.16211992 47.54830326 148.875 71.41734365 148.875 100.53125 C131.715 100.53125 114.555 100.53125 96.875 100.53125 C95.885 91.62125 95.885 91.62125 94.875 82.53125 C91.66485793 72.41443864 86.9961057 64.30695716 77.765625 58.61328125 C70.64518143 54.95754132 65.23139955 53.38419881 57.25170898 53.35424805 C56.10690819 53.34439125 56.10690819 53.34439125 54.9389801 53.33433533 C52.4163502 53.3146483 49.89377985 53.30294703 47.37109375 53.29296875 C46.07328319 53.28685546 46.07328319 53.28685546 44.74925423 53.28061867 C40.16543951 53.25977271 35.58165456 53.24546731 30.99780273 53.23608398 C26.28609073 53.22505143 21.57485512 53.190684 16.86331081 53.15091228 C13.22135095 53.12463545 9.57950243 53.11638215 5.93745613 53.11280251 C4.20208601 53.10796133 2.46672002 53.09641865 0.73144341 53.07776451 C-13.88937182 52.9304206 -24.68672521 54.83103935 -35.7734375 65.05078125 C-45.26644213 74.95338253 -45.64105653 87.17575879 -47.125 100.53125 C-64.285 100.53125 -81.445 100.53125 -99.125 100.53125 C-99.125 69.84869171 -93.28444431 48.69828689 -72.125 26.53125 C-71.58617187 25.91765625 -71.04734375 25.3040625 -70.4921875 24.671875 C-52.52322149 4.98727907 -25.30611161 -0.12222782 0 0 Z " fill="#F7EC00" transform="translate(231.125,31.46875)"></path><path d="M0 0 C0.90763596 -0.0049649 1.81527191 -0.00992981 2.75041199 -0.01504517 C5.7570369 -0.02966584 8.76360903 -0.03646877 11.77026367 -0.04199219 C13.85910544 -0.04774387 15.9479472 -0.0535016 18.03678894 -0.05926514 C22.41905971 -0.06977496 26.80131214 -0.0756177 31.18359375 -0.07910156 C36.79588424 -0.08458519 42.40793199 -0.10861061 48.02014637 -0.13707352 C52.33616339 -0.15570776 56.65212204 -0.16090593 60.96817589 -0.16243744 C63.03700779 -0.16546288 65.1058387 -0.17348775 67.17463112 -0.18662262 C70.07103504 -0.20369878 72.96684726 -0.2017989 75.86328125 -0.1953125 C77.1423082 -0.20913467 77.1423082 -0.20913467 78.44717407 -0.22323608 C83.42140442 -0.1883836 86.81701907 0.407033 91.12573242 3.16113281 C97.22131138 9.53378354 98.43611429 14.45154936 98.42651367 22.93457031 C98.4307988 23.77653961 98.43508392 24.61850891 98.4394989 25.48599243 C98.44522758 27.26278792 98.44575326 29.03960685 98.44140625 30.81640625 C98.43825093 33.52026857 98.46170695 36.22303096 98.48706055 38.92675781 C98.48933431 40.65852728 98.49003668 42.39029966 98.48901367 44.12207031 C98.49822342 44.92333344 98.50743317 45.72459656 98.516922 46.55014038 C98.46355265 53.09744173 97.11150237 57.73408065 92.87573242 62.91113281 C86.92158166 67.7827107 81.61707871 68.60538845 74.18041992 68.54931641 C73.31282043 68.55457336 72.44522095 68.55983032 71.55133057 68.56524658 C68.70094472 68.57838418 65.85112335 68.56973067 63.00073242 68.55957031 C61.00968316 68.56159284 59.01863462 68.56450577 57.02758789 68.56826782 C52.86166304 68.57268273 48.69593161 68.56628693 44.5300293 68.55224609 C39.20039472 68.5351548 33.87121343 68.54500044 28.54159546 68.56296349 C24.43225717 68.57382381 20.32302566 68.57034465 16.21368408 68.56258011 C14.24896185 68.56058432 12.28422981 68.56301546 10.31951904 68.57001877 C7.56976783 68.57767026 4.82074234 68.56597737 2.07104492 68.54931641 C1.2656427 68.5553891 0.46024048 68.56146179 -0.36956787 68.56771851 C-6.86199717 68.49514458 -11.49204288 67.11022574 -16.62426758 62.91113281 C-21.47473578 56.98278279 -22.33534184 51.64006624 -22.30786133 44.22753906 C-22.31310318 43.39077133 -22.31834503 42.5540036 -22.32374573 41.69187927 C-22.33013725 39.93123478 -22.32886632 38.17054742 -22.3203125 36.40991211 C-22.31180185 33.73440612 -22.34060324 31.06103788 -22.37231445 28.38574219 C-22.37392688 26.66634178 -22.37334814 24.94693763 -22.37036133 23.22753906 C-22.38159531 22.43771133 -22.39282928 21.64788361 -22.40440369 20.8341217 C-22.32723961 14.60230412 -20.761838 9.21077971 -16.3915863 4.5952301 C-11.1374517 0.03359485 -6.65726254 0.00866587 0 0 Z " fill="#F7EC00" transform="translate(217.874267578125,279.8388671875)"></path></svg>